<svg xmlns="http://www.w3.org/2000/svg" width="800" height="480" viewBox="0 0 800 480" font-family="ui-monospace,Menlo,monospace" font-size="12"><rect width="100%" height="100%" fill="#0d1117"/><text x="400" y="26" fill="#e6edf3" font-size="16" text-anchor="middle">Containers in vessel 0 vs configured max RAM</text><line x1="70" y1="424.0" x2="780.0" y2="424.0" stroke="#21262d"/><text x="62.0" y="428.0" fill="#8b949e" text-anchor="end">0</text><text x="70.0" y="442.0" fill="#8b949e" text-anchor="middle">1</text><line x1="70" y1="348.0" x2="780.0" y2="348.0" stroke="#21262d"/><text x="62.0" y="352.0" fill="#8b949e" text-anchor="end">221</text><text x="212.0" y="442.0" fill="#8b949e" text-anchor="middle">14.2</text><line x1="70" y1="272.0" x2="780.0" y2="272.0" stroke="#21262d"/><text x="62.0" y="276.0" fill="#8b949e" text-anchor="end">442</text><text x="354.0" y="442.0" fill="#8b949e" text-anchor="middle">27.4</text><line x1="70" y1="196.0" x2="780.0" y2="196.0" stroke="#21262d"/><text x="62.0" y="200.0" fill="#8b949e" text-anchor="end">662</text><text x="496.0" y="442.0" fill="#8b949e" text-anchor="middle">40.6</text><line x1="70" y1="120.0" x2="780.0" y2="120.0" stroke="#21262d"/><text x="62.0" y="124.0" fill="#8b949e" text-anchor="end">883</text><text x="638.0" y="442.0" fill="#8b949e" text-anchor="middle">53.8</text><line x1="70" y1="44.0" x2="780.0" y2="44.0" stroke="#21262d"/><text x="62.0" y="48.0" fill="#8b949e" text-anchor="end">1104</text><text x="780.0" y="442.0" fill="#8b949e" text-anchor="middle">67</text><text x="425" y="466" fill="#8b949e" text-anchor="middle">max RAM (GiB)</text><text x="16" y="234" fill="#8b949e" text-anchor="middle" transform="rotate(-90 16 234)">containers running</text><polyline points="102.3,420.6 145.3,417.1 231.4,406.8 403.5,383.0 747.7,344.8" fill="none" stroke="#4e79a7" stroke-width="2"/><circle cx="102.3" cy="420.6" r="3.5" fill="#4e79a7"/><circle cx="145.3" cy="417.1" r="3.5" fill="#4e79a7"/><circle cx="231.4" cy="406.8" r="3.5" fill="#4e79a7"/><circle cx="403.5" cy="383.0" r="3.5" fill="#4e79a7"/><circle cx="747.7" cy="344.8" r="3.5" fill="#4e79a7"/><rect x="82.0" y="50.0" width="12" height="12" fill="#4e79a7"/><text x="100.0" y="60.0" fill="#e6edf3">full/hog:256</text><polyline points="102.3,258.7 145.3,72.1 231.4,72.1 403.5,72.1 747.7,72.1" fill="none" stroke="#f28e2b" stroke-width="2"/><circle cx="102.3" cy="258.7" r="3.5" fill="#f28e2b"/><circle cx="145.3" cy="72.1" r="3.5" fill="#f28e2b"/><circle cx="231.4" cy="72.1" r="3.5" fill="#f28e2b"/><circle cx="403.5" cy="72.1" r="3.5" fill="#f28e2b"/><circle cx="747.7" cy="72.1" r="3.5" fill="#f28e2b"/><rect x="82.0" y="68.0" width="12" height="12" fill="#f28e2b"/><text x="100.0" y="78.0" fill="#e6edf3">full/idle</text><polyline points="102.3,369.6 145.3,289.7 231.4,145.1 403.5,72.1 747.7,72.1" fill="none" stroke="#e15759" stroke-width="2"/><circle cx="102.3" cy="369.6" r="3.5" fill="#e15759"/><circle cx="145.3" cy="289.7" r="3.5" fill="#e15759"/><circle cx="231.4" cy="145.1" r="3.5" fill="#e15759"/><circle cx="403.5" cy="72.1" r="3.5" fill="#e15759"/><circle cx="747.7" cy="72.1" r="3.5" fill="#e15759"/><rect x="82.0" y="86.0" width="12" height="12" fill="#e15759"/><text x="100.0" y="96.0" fill="#e6edf3">full/nginx</text><polyline points="102.3,422.3 145.3,422.6 231.4,421.9" fill="none" stroke="#76b7b2" stroke-width="2"/><circle cx="102.3" cy="422.3" r="3.5" fill="#76b7b2"/><circle cx="145.3" cy="422.6" r="3.5" fill="#76b7b2"/><circle cx="231.4" cy="421.9" r="3.5" fill="#76b7b2"/><rect x="82.0" y="104.0" width="12" height="12" fill="#76b7b2"/><text x="100.0" y="114.0" fill="#e6edf3">slim/hog:256</text><polyline points="102.3,251.9 145.3,251.9 231.4,251.9" fill="none" stroke="#59a14f" stroke-width="2"/><circle cx="102.3" cy="251.9" r="3.5" fill="#59a14f"/><circle cx="145.3" cy="251.9" r="3.5" fill="#59a14f"/><circle cx="231.4" cy="251.9" r="3.5" fill="#59a14f"/><rect x="82.0" y="122.0" width="12" height="12" fill="#59a14f"/><text x="100.0" y="132.0" fill="#e6edf3">slim/idle</text><polyline points="102.3,327.6 145.3,251.9 231.4,251.9" fill="none" stroke="#edc948" stroke-width="2"/><circle cx="102.3" cy="327.6" r="3.5" fill="#edc948"/><circle cx="145.3" cy="251.9" r="3.5" fill="#edc948"/><circle cx="231.4" cy="251.9" r="3.5" fill="#edc948"/><rect x="82.0" y="140.0" width="12" height="12" fill="#edc948"/><text x="100.0" y="150.0" fill="#e6edf3">slim/nginx</text></svg>